<mxfile host="app.diagrams.net" modified="2024-01-04T02:43:42.261Z" agent="Mozilla/5.0 (Windows NT 10.0; Win64; x64) AppleWebKit/537.36 (KHTML, like Gecko) Chrome/120.0.0.0 Safari/537.36" etag="LUouhTbZs5eZNNEZu36I" version="22.1.16" type="github">
  <diagram name="페이지-1" id="rVaEQjZ9tEmOoUhtRSH3">
    <mxGraphModel dx="1434" dy="780" grid="1" gridSize="10" guides="1" tooltips="1" connect="1" arrows="1" fold="1" page="1" pageScale="1" pageWidth="827" pageHeight="1169" math="0" shadow="0">
      <root>
        <mxCell id="0" />
        <mxCell id="1" parent="0" />
        <mxCell id="ysXrW0Vz5X77Z1XPYCpx-1" value="" style="swimlane;startSize=0;" vertex="1" parent="1">
          <mxGeometry x="260" y="385" width="200" height="200" as="geometry" />
        </mxCell>
        <mxCell id="ysXrW0Vz5X77Z1XPYCpx-2" value="" style="shape=parallelogram;perimeter=parallelogramPerimeter;whiteSpace=wrap;html=1;fixedSize=1;" vertex="1" parent="1">
          <mxGeometry x="320" y="260" width="120" height="60" as="geometry" />
        </mxCell>
        <mxCell id="ysXrW0Vz5X77Z1XPYCpx-3" value="" style="ellipse;whiteSpace=wrap;html=1;" vertex="1" parent="1">
          <mxGeometry x="210" y="220" width="120" height="80" as="geometry" />
        </mxCell>
        <mxCell id="ysXrW0Vz5X77Z1XPYCpx-4" value="" style="shape=cylinder3;whiteSpace=wrap;html=1;boundedLbl=1;backgroundOutline=1;size=15;" vertex="1" parent="1">
          <mxGeometry x="100" y="330" width="60" height="80" as="geometry" />
        </mxCell>
        <mxCell id="ysXrW0Vz5X77Z1XPYCpx-5" value="" style="shape=hexagon;perimeter=hexagonPerimeter2;whiteSpace=wrap;html=1;fixedSize=1;" vertex="1" parent="1">
          <mxGeometry x="460" y="300" width="120" height="80" as="geometry" />
        </mxCell>
      </root>
    </mxGraphModel>
  </diagram>
</mxfile>
